<svg xmlns="http://www.w3.org/2000/svg" width="50" height="50" viewBox="0 0 50 50">
  <path id="Icon_ionic-ios-paper" data-name="Icon ionic-ios-paper" d="M12.51,7.221v38.7a1.688,1.688,0,0,1-1.683,1.683h0a1.688,1.688,0,0,1-1.683-1.683V11.067H7.221a3.842,3.842,0,0,0-3.846,3.846V49.529a3.842,3.842,0,0,0,3.846,3.846h42.44a3.716,3.716,0,0,0,3.714-3.714V7.221a3.842,3.842,0,0,0-3.846-3.846l-33.413.24A3.445,3.445,0,0,0,12.51,7.221Zm7.933,3.846h10.1a1.688,1.688,0,0,1,1.683,1.683h0a1.688,1.688,0,0,1-1.683,1.683h-10.1A1.688,1.688,0,0,1,18.76,12.75h0A1.688,1.688,0,0,1,20.442,11.067Zm0,19.231H38.231a1.688,1.688,0,0,1,1.683,1.683h0a1.688,1.688,0,0,1-1.683,1.683H20.442a1.688,1.688,0,0,1-1.683-1.683h0A1.688,1.688,0,0,1,20.442,30.3ZM44,43.279H20.442A1.688,1.688,0,0,1,18.76,41.6h0a1.688,1.688,0,0,1,1.683-1.683H44A1.688,1.688,0,0,1,45.683,41.6h0A1.688,1.688,0,0,1,44,43.279Zm0-19.231H20.442a1.688,1.688,0,0,1-1.683-1.683h0a1.688,1.688,0,0,1,1.683-1.683H44a1.688,1.688,0,0,1,1.683,1.683h0A1.688,1.688,0,0,1,44,24.048Z" transform="translate(-3.375 -3.375)"/>
</svg>
