<svg xmlns="http://www.w3.org/2000/svg" width="76.936" height="50" viewBox="0 0 76.936 50">
  <g id="Icon_ionic-ios-people" data-name="Icon ionic-ios-people" transform="translate(-2.215 -7.748)">
    <path id="Path_180" data-name="Path 180" d="M48.047,46.217c-1.919-.685-5.055-.72-6.443-1.251-.96-.377-2.485-.788-2.981-1.388s-.5-4.883-.5-4.883a7.889,7.889,0,0,0,1.7-2.4,26.661,26.661,0,0,0,.822-4.712s1.131.48,1.576-1.782c.377-1.953,1.1-2.981.908-4.421-.206-1.439-.994-1.1-.994-1.1s.994-1.456.994-6.409c0-5.106-3.855-10.127-11.069-10.127-7.2,0-11.086,5.038-11.086,10.127,0,4.952.977,6.409.977,6.409s-.805-.343-.994,1.1c-.206,1.439.514,2.467.908,4.421.446,2.279,1.576,1.782,1.576,1.782a26.918,26.918,0,0,0,.822,4.712,7.889,7.889,0,0,0,1.7,2.4s0,4.284-.5,4.883-2.022,1.011-2.981,1.371c-1.371.531-4.507.6-6.443,1.285A12.093,12.093,0,0,0,8.191,57.748H55.878A12.069,12.069,0,0,0,48.047,46.217Z" transform="translate(8.588)"/>
    <path id="Path_181" data-name="Path 181" d="M20.806,32.9s4.1-.137,5.723-1.594c-2.656-4.027-1.217-8.722-1.765-13.108-.548-4.369-3.033-6.991-8-6.991h-.069c-4.8,0-7.385,2.6-7.934,6.991-.548,4.369.977,9.6-1.748,13.108,1.628,1.474,5.74,1.422,5.74,1.422h0s.171,2.467-.171,2.879a4.327,4.327,0,0,1-2.056.942,39.758,39.758,0,0,0-4.438,1.234,7.214,7.214,0,0,0-3.873,6.374H15.974c.377-1.371,2.964-3.821,5.483-5.106a11.506,11.506,0,0,1,4.232-.891s.651-1.028-1.491-1.422c0,0-2.947-.737-3.29-1.148C20.584,35.214,20.806,32.9,20.806,32.9Z" transform="translate(0 4.971)"/>
    <path id="Path_182" data-name="Path 182" d="M29.531,32.9s-4.1-.137-5.723-1.594c2.656-4.027,1.217-8.722,1.765-13.108.548-4.369,3.033-6.991,8-6.991h.069c4.8,0,7.385,2.6,7.934,6.991.548,4.369-.977,9.6,1.748,13.108-1.628,1.474-5.74,1.422-5.74,1.422h0s-.171,2.467.171,2.879a4.327,4.327,0,0,0,2.056.942,39.758,39.758,0,0,1,4.438,1.234,7.214,7.214,0,0,1,3.873,6.374H34.363c-.377-1.371-2.964-3.821-5.483-5.106a11.506,11.506,0,0,0-4.232-.891S24,37.133,26.138,36.739c0,0,2.947-.737,3.29-1.148C29.754,35.214,29.531,32.9,29.531,32.9Z" transform="translate(31.029 4.971)"/>
  </g>
</svg>
